# xmcd
#
# Track frame offsets:
# 150
# 18510
# 33717
# 50418
# 65305
# 85769
# 99597
# 120486
# 134903
# 152601
# 168482
# 186823
#
# Disc length: 2707 seconds
#
#
# Revision: 0
# Processed by: cddbd v1.5.2PL0 Copyright (c) Steve Scherf et al.
# Submitted via: FreeRIP 2.951 
#
DISCID=9f0a910c
DTITLE=Luke Bryan - I'll Stay Me
DYEAR=2007
DGENRE=Country
TTITLE0=All My Friends Say
TTITLE1=Baby's On the Way
TTITLE2=The Car In Front of Me
TTITLE3=Pray About Everything
TTITLE4=We Rode In Trucks
TTITLE5=I'll Stay Me
TTITLE6=First Love Song
TTITLE7=Country Man
TTITLE8=Over The River
TTITLE9=You Make Me Want To
TTITLE10=Tackle Box
TTITLE11=Good Directions (Bonus Track)
EXTD=
EXTT0=
EXTT1=
EXTT2=
EXTT3=
EXTT4=
EXTT5=
EXTT6=
EXTT7=
EXTT8=
EXTT9=
EXTT10=
EXTT11=
PLAYORDER=
